<?xml version="1.0" encoding="iso-8859-1"?>
<!-- Generator: Adobe Illustrator 19.0.0, SVG Export Plug-In . SVG Version: 6.00 Build 0)  -->
<svg version="1.1" id="Capa_1" xmlns="http://www.w3.org/2000/svg" xmlns:xlink="http://www.w3.org/1999/xlink" x="0px" y="0px"
	 viewBox="0 0 512 512" style="enable-background:new 0 0 512 512;" xml:space="preserve">
<path style="fill:#3831A8;" d="M437.02,74.98C388.667,26.629,324.38,0,256,0S123.333,26.629,74.98,74.98
	C26.629,123.333,0,187.62,0,256s26.629,132.667,74.98,181.02C123.333,485.371,187.62,512,256,512s132.667-26.629,181.02-74.98
	C485.371,388.667,512,324.38,512,256S485.371,123.333,437.02,74.98z"/>
<path style="fill:#150C82;" d="M437.02,74.98C388.667,26.629,324.38,0,256,0v512c68.38,0,132.667-26.629,181.02-74.98
	C485.371,388.667,512,324.38,512,256S485.371,123.333,437.02,74.98z"/>
<path style="fill:#FDE2FF;" d="M256,437c-99.804,0-181-81.196-181-181S156.196,75,256,75s181,81.196,181,181S355.804,437,256,437z"
	/>
<path style="fill:#F6CDFF;" d="M256,437V75c99.804,0,181,81.196,181,181S355.804,437,256,437z"/>
<polygon style="fill:#3831A8;" points="278.736,279.296 359.94,256 278.736,232.704 256,149.636 233.264,232.704 152.059,256 
	233.264,279.296 256,362.367 "/>
<path style="fill:#7ABDFF;" d="M256,60C147.925,60,60,147.925,60,256s87.925,196,196,196s196-87.925,196-196S364.075,60,256,60z
	 M271,421.315v-20.992h-30v20.992C161.413,414.152,97.848,350.587,90.685,271h20.992v-30H90.685
	C97.848,161.413,161.413,97.848,241,90.685v20.992h30V90.685C350.587,97.848,414.152,161.413,421.315,241h-20.992v30h20.992
	C414.152,350.587,350.587,414.152,271,421.315z"/>
<polygon style="fill:#150C82;" points="278.736,279.296 359.94,256 278.736,232.704 256,149.636 256,362.367 "/>
<path style="fill:#6183FF;" d="M256,60v51.677h15V90.685C350.587,97.848,414.152,161.413,421.315,241h-20.992v30h20.992
	C414.152,350.587,350.587,414.152,271,421.315v-20.992h-15V452c108.075,0,196-87.925,196-196S364.075,60,256,60z"/>
<rect x="241.004" y="139.228" transform="matrix(-0.7071 -0.7071 0.7071 -0.7071 256.0119 618.0269)" style="fill:#F4A440;" width="30" height="233.528"/>
<polygon style="fill:#F17B39;" points="256,277.213 256,234.787 327.96,162.827 349.173,184.04 "/>
<g>
</g>
<g>
</g>
<g>
</g>
<g>
</g>
<g>
</g>
<g>
</g>
<g>
</g>
<g>
</g>
<g>
</g>
<g>
</g>
<g>
</g>
<g>
</g>
<g>
</g>
<g>
</g>
<g>
</g>
</svg>
