<svg enable-background="new 0 0 55 57" height="512" viewBox="0 0 55 57" width="512" xmlns="http://www.w3.org/2000/svg"><path d="m51.974 29.973-5.363-14.815c-4.754-6.175-12.215-10.158-20.611-10.158-1.671 0-3.304.164-4.887.465l-15.361 9.232c-3.595 4.46-5.752 10.128-5.752 16.303 0 14.359 11.641 26 26 26s26-11.641 26-26c0-.344-.013-.685-.026-1.027z" fill="#1081e0"/><path d="m41 23c0 4.418 7 12 7 12s7-7.582 7-12-3.134-8-7-8-7 3.582-7 8z" fill="#ebba16"/><circle cx="48" cy="22" fill="#fff" r="3"/><path d="m42.53 33.95c-.01 0-.03 0-.04 0-1.38-.051-2.74-.141-4.05-.271-.51-.06-.9-.479-.9-1 0-.03 0-.07 0-.1.06-.55.54-.96 1.1-.891 1.28.13 2.6.221 3.93.271.27.01.51.12.7.31.18.2.27.45.26.721-.02.54-.46.96-1 .96zm-8.94-.99c-.06 0-.12 0-.19-.021-1.37-.26-2.71-.58-3.97-.949-.43-.12-.73-.511-.73-.96 0-.091.02-.181.04-.271.15-.52.72-.84 1.24-.69 1.19.341 2.47.65 3.8.91.54.11.9.63.79 1.17-.09.471-.5.811-.98.811zm-8.58-2.641c-.14 0-.28-.029-.42-.09-1.35-.62-2.56-1.319-3.62-2.06 0 0-.01 0-.01-.01-.27-.181-.42-.49-.42-.811 0-.21.06-.41.18-.58.31-.439.96-.55 1.39-.239.96.67 2.08 1.31 3.32 1.88.24.109.43.31.52.56s.08.521-.03.76c-.16.361-.52.59-.91.59zm-6.93-5.529c-.35 0-.68-.19-.86-.49-.81-1.361-1.22-2.8-1.22-4.3 0-.55.45-1 1-1s1 .45 1 1c0 1.14.31 2.21.94 3.28.14.22.18.489.11.75-.07.26-.23.479-.46.619-.15.091-.33.141-.51.141z" fill="#fff"/><path d="m4 9.6c0 5.302 9 14.4 9 14.4s9-9.098 9-14.4-4.029-9.6-9-9.6-9 4.298-9 9.6z" fill="#dd352e"/><circle cx="13" cy="9" fill="#fff" r="4"/></svg>