<svg xmlns="http://www.w3.org/2000/svg" viewBox="2.000000000000001 -8.881784197001252e-16 23.7 55">
  <path d="M 24 0 C 25 3 25.4 5.1 25.7 8.2 c -0.2 3.9 -0.8 7.3 -2.2 10 C 22.3 20.8 19.9 22.9 17.8 25.7 c -1.5 1.9 -3.726 4.625 -5.3 6.8 c -0.982 2.298 -2.3 3.9 -1.3 6.3 c 0.7 2.2 1.9 4.2 0.6 8 C 11.1 48.7 10 51 8.8 52 c -0.9 1.2 -2.3 2 -3.8 3 c -0.1 -0.1 -0.7 0 -3 0 c 9 -6 8 -11 7.1 -13.4 c -1.1 -3.6 -2.1 -5.6 0.9 -10.6 c 4 -6 6 -8 7.3 -10.5 c 3.7 -7.5 2.7 -12.5 2.4 -15.3 c -0.3 -1.9 -0.7 -3.2 -1.7 -5.2" fill="#6254fa"/>
</svg>