<svg xmlns="http://www.w3.org/2000/svg" viewBox="2.000000000000001 -8.881784197001252e-16 25.793 55.083">
  <path d="M 24 0 C 25 3 25.4 5.1 25.7 8.2 c -0.2 3.9 -0.8 7.3 -2.2 10 C 22.3 20.8 19.9 22.9 17.8 25.7 c -1.5 1.9 -3.9 4.6 -5.3 6.8 c -1.1 1.8 -2.3 3.9 -1.3 6.3 c 0.7 2.2 1.9 4.2 0.6 8 C 11.1 48.7 10 51 8.8 52 c -0.9 1.2 -2.3 2 -3.8 3 c -0.1 -0.1 -0.7 0 -3 0 c 9 -6 8 -11 7.1 -13.4 c -1.1 -3.6 -2.1 -5.6 0.9 -10.6 c 4 -6 6 -8 7.3 -10.5 c 3.7 -7.5 2.7 -12.5 2.4 -15.3 c -0.3 -1.9 -0.7 -3.2 -1.7 -5.2 Z M 24 0 L 27.029 0.06 C 27.319 2.151 28 3 27.793 8.124 C 27.644 10.909 27.345 13.347 26.848 15.983 C 25.853 18.62 24.759 20.411 23.366 22.201 C 22.207 23.296 19.419 26.259 16.398 29.628 C 15.294 30.848 13.842 32.823 12.671 34.687 C 11.676 39.214 13.699 39.861 13.964 42.646 C 13.914 46.726 12.571 49.312 11.328 51.252 C 9.776 52.633 8.293 54.138 6.353 55.083 H 5.01 C 6.2867 54.0383 7.796 53.242 8.84 51.949 C 10.034 50.705 11.079 49.064 11.825 46.726 C 12.87 43.89 12.173 41.055 11.178 38.816 C 11.029 38.219 9.885 36.528 12.522 32.499 C 15.859 27.481 23.266 19.515 23.515 18.222 C 24.886 15.496 25.447 12.181 25.702 8.203 C 25.402 5.114 24.996 3.08 24.008 0.001" fill="#6254fa"/>
</svg>