<svg xmlns="http://www.w3.org/2000/svg" viewBox="4.659 0 23.134 55.013">
  <path d="m 24 0 Z M 24 0 L 27.029 0.06 C 27.319 2.151 28 3 27.793 8.124 C 27.644 10.909 27.345 13.347 26.848 15.983 C 25.853 18.62 24.759 20.411 23.366 22.201 C 22.207 23.296 19.419 26.259 16.398 29.628 C 15.294 30.848 13.842 32.823 12.671 34.687 C 11.693 39.272 13.699 39.861 13.964 42.646 C 13.914 46.726 12.571 49.312 11.328 51.252 C 9.776 52.633 8.293 54.138 6.376 55.013 H 4.659 C 6.2867 54.0383 7.796 53.242 8.84 51.949 C 10.034 50.705 10.938 48.915 11.813 46.485 C 12.87 43.89 12.216 40.956 10.996 38.981 C 11.029 38.219 9.885 36.528 12.614 32.234 C 15.859 27.481 23.266 19.515 23.369 18.068 C 24.886 15.496 25.447 12.181 25.577 8.192 C 25.402 5.114 24.996 3.08 24.008 0.001" fill="#3d17ad"/>
</svg>