<svg xmlns="http://www.w3.org/2000/svg" viewBox="2 -0.112 23.701 55.155">
  <path d="M 24.036 -0.112 C 25.146 2.316 25.424 5.091 25.701 8.213 C 25.493 12.098 24.901 15.556 23.689 18.412 C 22.265 21.453 20.22 23.407 18.278 25.766 C 16.474 27.847 14.601 30.067 13.144 32.079 C 11.479 34.299 10.23 36.381 11.271 38.809 C 12 41 13.144 43.041 11.895 46.857 C 11.132 48.66 9.952 51.019 8.805 52.048 C 7.904 53.228 6.553 54.002 5.027 55.043 C 4.957 54.904 4.333 55.043 2 55 C 11 49 10 44 9.12 41.584 C 8 38 7 36 10 31 C 14 25 16 23 17.306 20.493 C 21 13 20 8 19.735 5.161 C 19.388 3.287 19 2 18 0" fill="#6758fc"/>
</svg>