<?xml version="1.0" standalone="no"?>
<!DOCTYPE svg PUBLIC "-//W3C//DTD SVG 20010904//EN"
 "http://www.w3.org/TR/2001/REC-SVG-20010904/DTD/svg10.dtd">
<svg version="1.0" xmlns="http://www.w3.org/2000/svg"
 width="255.569333pt" height="597.000000pt" viewBox="0 0 255.569333 597.000000"
 preserveAspectRatio="xMidYMid meet">
<metadata>
Created by Potrace Professional 1.1m
</metadata>
<g transform="translate(-201.909787,597.000000) rotate(-360.00) scale(0.095238,-0.095238)"
fill="#6a5afc" stroke="none">
<path d="M3895 6245 c5 -13 23 -53 41 -88 18 -35 33 -68 33 -72 0 -4 7 -22 15
-41 22 -48 65 -190 83 -274 39 -184 43 -225 42 -446 -1 -226 -6 -265 -55 -483
-13 -58 -70 -234 -93 -284 -56 -125 -145 -301 -191 -376 -29 -48 -53 -89 -53
-91 0 -3 -54 -88 -84 -131 -6 -9 -31 -47 -55 -84 -24 -38 -48 -73 -53 -79 -14
-19 -157 -227 -247 -360 -202 -300 -333 -539 -403 -732 -35 -96 -49 -141 -81
-263 -24 -93 -45 -325 -38 -420 15 -208 36 -309 107 -530 59 -185 81 -366 57
-476 -5 -24 -15 -71 -22 -104 -20 -102 -125 -296 -221 -412 -109 -131 -267
-269 -435 -381 -58 -39 -109 -75 -113 -81 -23 -33 -8 -37 130 -37 l139 0 69
44 c38 25 75 51 83 58 7 8 17 14 21 14 5 0 17 8 28 18 12 10 49 40 84 66 120
90 298 275 380 395 28 40 87 143 87 150 0 5 11 34 25 65 80 183 83 452 6 681
-17 52 -27 91 -63 249 -17 75 -23 317 -11 423 21 176 62 342 116 467 54 126
163 346 179 362 3 3 11 15 18 27 70 117 103 170 114 181 7 7 24 30 37 52 14
22 31 46 38 54 8 7 19 23 25 35 6 11 18 29 26 38 8 10 37 48 65 86 85 114 154
204 160 210 3 3 43 55 89 116 46 60 86 112 89 115 10 9 184 242 225 302 21 30
55 79 75 107 20 29 37 56 37 59 0 3 11 21 24 39 31 42 111 183 162 286 14 29
30 61 35 71 17 33 90 222 103 270 8 26 18 59 23 74 14 44 40 199 51 312 22
217 -24 554 -106 782 l-22 61 -392 0 -392 0 9 -24z"/>
</g>
</svg>
