<?xml version="1.0" standalone="no"?>
<!DOCTYPE svg PUBLIC "-//W3C//DTD SVG 20010904//EN"
 "http://www.w3.org/TR/2001/REC-SVG-20010904/DTD/svg10.dtd">
<svg version="1.0" xmlns="http://www.w3.org/2000/svg"
 width="291.224454pt" height="600.000000pt" viewBox="0 0 291.224454 600.000000"
 preserveAspectRatio="xMidYMid meet">
<metadata>
Created by Potrace Professional 1.1m
</metadata>
<g transform="translate(-346.875480,600.000000) rotate(-360.00) scale(0.095238,-0.095238)"
fill="#3b14b4" stroke="none">
<path d="M5408 6296 c0 -2 23 -53 51 -113 81 -173 125 -314 166 -532 23 -125
23 -485 0 -611 -34 -184 -44 -221 -93 -366 -33 -97 -42 -117 -111 -264 -87
-182 -266 -472 -487 -787 -153 -219 -321 -480 -381 -591 -19 -36 -40 -75 -46
-87 -39 -67 -117 -252 -149 -351 -23 -70 -57 -221 -73 -317 -14 -86 -15 -357
-1 -426 5 -27 17 -90 27 -139 9 -50 35 -146 58 -216 56 -174 73 -262 73 -385
0 -234 -85 -455 -249 -651 -104 -124 -273 -271 -448 -390 l-103 -70 279 0 278
0 108 81 c128 96 340 305 409 402 163 230 239 492 210 722 -8 56 -30 159 -49
228 -80 278 -84 303 -83 525 1 156 6 206 24 284 57 231 110 363 248 609 86
152 308 452 514 693 29 34 63 74 76 89 12 14 43 50 68 79 219 254 436 525 550
688 122 174 280 469 329 614 117 348 127 680 36 1189 l-18 97 -607 0 c-333 0
-606 -2 -606 -4z"/>
</g>
</svg>
